<svg xmlns="http://www.w3.org/2000/svg" width="173.586" height="177.259" viewBox="0 0 173.586 177.259"><g transform="translate(255.602 244.142)"><g transform="translate(-255.601 -244.141)"><g transform="translate(0 16.727)"><path d="M209.767,362.079c-3.676-.8-47.847-7.958-44.6-60.787s7.333-68.717,24.506-74.529,58.918-33.317,91.675-7.165,68.1,49.608,54.078,91.366-16.324,55.687-52.921,53.556S227.248,365.86,209.767,362.079Z" transform="translate(-165 -208.5)" fill="#fff"/></g><g transform="translate(47.044 0)"><g transform="translate(0 0)"><path d="M501.054,989.8c-.755-.32-1.036-.7-.679-1.139,2.479-3.075,13.757-2.965,19.226-2.954,6.88.014,14.038-.058,20.242.7,2.6.317,8.474.614,9.491,1.657,2.666,2.74-16.074,3.466-19.108,3.5C525.168,991.618,505.368,991.627,501.054,989.8Z" transform="translate(-484.6 -814.32)" fill="#e3e3e3"/><path d="M543.894,457.168a13.568,13.568,0,0,1-3.384-1.257c-1.561-.831-2.712-2.389-4.353-2.965-2.894-1.015-6.263-.385-7.942-3.459-.64-1.172-1.011-2.475-1.534-3.7-.368-.862-1.261-1.943-.149-2.616a7.182,7.182,0,0,1,2.911-.577c6.074-.686,12.089-.994,18.2-1.143a34.823,34.823,0,0,1,6.57.361c1.327.221,6.366.744,5.768,2.878-.558,1.993-.912,4.18-2.127,5.908-.574.816-1.34,1.4-1.945,2.181a8.531,8.531,0,0,1-2.422,1.914q-1.241.749-2.493,1.479a10.646,10.646,0,0,1-2.08,1.011,7.781,7.781,0,0,1-2.69.295A13.079,13.079,0,0,1,543.894,457.168Z" transform="translate(-504.141 -401.665)" fill="#efefef"/><path d="M524.449,378.808c-.519-2.791-1.123-5.567-1.777-8.329q-1.2-5.049-2.64-10.035c-1.011-3.479-2.118-6.932-3.372-10.331a81.529,81.529,0,0,0-3.975-9.218,28.825,28.825,0,0,0-1.939-3.573c-1.217-1.706-3.133-2.378-3.716-4.429-1.013-3.563-.609-6.816-.143-10.373a84.74,84.74,0,0,0,.785-11.123c0-.532,0-2.078,0-2.405-.021-13.419-5.945-23.079-13.233-23.068s-13.18,9.689-13.159,23.108c0,.311,0,1.857,0,2.405a78.33,78.33,0,0,0,.691,11.276c.47,3.192,1.3,6.778-.462,9.76-.484.82-1.144,1.13-1.737,1.864a16.724,16.724,0,0,0-1.333,2.406q-1.221,2.168-2.314,4.405a101.517,101.517,0,0,0-4,9.375,140.477,140.477,0,0,0-6.258,23.246,198.49,198.49,0,0,0-2.893,24.185,228.934,228.934,0,0,0-.23,22.966c9.424-1.4,18.878,1.983,28.4,2.264,6.52.192,12.985-1.073,19.386-2.333,5.254-1.034,11.567.7,16.821-.331C530.76,419.849,525.249,383.111,524.449,378.808Z" transform="translate(-456.046 -283.759)" fill="#fff"/><g transform="translate(13.156 103.138)"><path d="M542.21,704.7c-.075-.273-19.753-.058-23.124.084-7.245.3-28.761-1.289-28.839-1.3-.287-.021-.212.857-.207.959a21.751,21.751,0,0,0,.358,2.774c.25,1.447.551,2.9.872,4.362.415,1.9.868,3.81,1.346,5.749q.842,3.415,1.787,6.931,1.037,3.87,2.189,7.871,1.2,4.18,2.541,8.505,1.332,4.3,2.82,8.74c.938,2.786,1.929,5.611,3,8.461.939,2.505,1.935,5.033,3.037,7.549a60.872,60.872,0,0,0,2.9,5.9,13.889,13.889,0,0,0,2.551,3.469c.794.714,1.889.562,1.866-.848-.095-5.681.328-11.263.465-16.568q.23-8.952.367-17.193.122-6.7.219-12.969c.015-.922.014-1.837.033-2.751.006-.33-.079-2.144.628-2.016.809.147.5,2.765.5,3.379q.006,2.147.008,4.343.008,6.25.013,12.911.009,7.429.034,15.413c.015,4.065.026,8.246.089,12.544.011.759-.25,2.595.106,3.278a1.046,1.046,0,0,0,1.04.585c.941-.125,1.448-1.62,1.807-2.465,2.747-6.47,5.515-12.595,7.925-18.6,1.149-2.865,2.2-5.71,3.216-8.5,1.005-2.759,1.817-5.582,2.89-8.183.018-.053.039-.107.055-.161a177.354,177.354,0,0,0,6.125-22.033,69.288,69.288,0,0,0,1.461-8.215A6.226,6.226,0,0,0,542.21,704.7Z" transform="translate(-490.028 -703.485)" fill="#e3e3e3"/><path d="M549.346,705.48c-.075-.273-19.753-.058-23.124.084-7.245.3-26.788-1.114-26.783-1.043.179,2.814,6.7,25.356,7.494,28.016.835,2.778,12.6,42.065,13.639,43,.794.714,1.889.562,1.866-.848-.095-5.681.328-11.263.465-16.568q.23-8.952.367-17.193.122-6.7.219-12.968c.015-.922.014-1.837.033-2.751.006-.33.049-1.562.628-2.017,3.558-2.793,2.692,17.147,2.734,21.621.046,4.989-1.353,30.886-.942,30.832.941-.125,1.448-1.62,1.807-2.465,2.747-6.47,5.515-12.595,7.924-18.6,1.149-2.865,2.2-5.71,3.216-8.5,1.005-2.759,1.817-5.582,2.89-8.183.018-.053.039-.107.055-.161A177.339,177.339,0,0,0,547.96,715.7a69.265,69.265,0,0,0,1.461-8.215A6.225,6.225,0,0,0,549.346,705.48Z" transform="translate(-497.163 -704.268)" fill="#efefef"/><g transform="translate(23.234 0.818)"><path d="M594.59,706.9c-2.576.064-5.125.112-7.7-.025-.515-.028-1.215.726-.426.768,2.678.142,5.323.088,8,.022.63-.016.928-.784.128-.764Z" transform="translate(-586.107 -706.869)" fill="#6a79a8"/></g><g transform="translate(8.115 18.528)"><path d="M523.6,797.707c1.655,5.5,3.417,10.969,5.419,16.353s4.061,10.943,6.972,15.906c.744,1.268,2.081,3.922,3.906,3.665,1.132-.16,1.4-1.2,1.482-2.17.128-1.6.182-3.21.245-4.815.471-11.88.693-23.77,1.02-35.654.069-2.486.137-4.972.227-7.457.026-.72.051-1.441.091-2.16a3.517,3.517,0,0,0,.042-.647c-.047-.313.241-.29-.169,0l-.722.135c-.352-.138-.163.24-.162.5s-.013.526-.012.791c0,.731.013,1.462.016,2.193q.008,2.7,0,5.4-.009,5.088-.027,10.177-.021,10.032.033,20.063c.022,3.256-.057,6.529.223,9.774.133,1.546.217,4.264,2.544,3.448,1.861-.653,2.366-3.011,2.956-4.653,1.21-3.368,2.647-6.668,3.992-9.984,1.412-3.481,2.83-6.961,4.207-10.456,1.451-3.683,2.686-7.436,4.073-11.142.221-.591-.944-.515-1.1-.086-1.568,4.188-2.989,8.42-4.642,12.579-1.627,4.094-3.3,8.169-4.948,12.255-.86,2.13-1.741,4.256-2.555,6.4-.492,1.3-.787,2.9-1.73,3.963-.869.981-1.381-.326-1.49-1.146-.095-.714-.134-1.438-.2-2.155-.214-2.326-.119-4.7-.137-7.038-.068-8.646-.061-17.292-.037-25.938.013-4.371.048-8.744.007-13.115-.005-.566.362-2.406-.451-2.576a.732.732,0,0,0-.827.551,7.779,7.779,0,0,0-.113,2.022c-.056,1.387-.1,2.774-.141,4.161-.13,4.277-.238,8.555-.35,12.833-.237,9.053-.435,18.109-.8,27.158-.053,1.338-.108,2.676-.192,4.013a6.016,6.016,0,0,1-.089,1.171c-.392,1.409-1.44-.1-1.907-.722a22.044,22.044,0,0,1-1.61-2.565,100.368,100.368,0,0,1-5.554-12.6c-1.616-4.177-3.08-8.411-4.446-12.676q-.969-3.024-1.878-6.066c-.145-.48-1.311-.162-1.168.313Z" transform="translate(-523.586 -780.103)" fill="#6a79a8"/></g></g><g transform="translate(25.138 1.879)"><path d="M541.568,323.368a91.984,91.984,0,0,1-.769-10.5,75.514,75.514,0,0,1,.159-9.277c.55-5.516,2.058-11.787,6.14-15.82a7.909,7.909,0,0,1,5.77-2.557,8.781,8.781,0,0,1,5.508,2.431c4.093,3.7,5.734,9.7,6.418,14.974a70.953,70.953,0,0,1,.329,10.6,83.58,83.58,0,0,1-.91,11.574c-.049.3,1.106.1,1.154-.2a80.53,80.53,0,0,0,.89-10.356,83.843,83.843,0,0,0-.123-10.394c-.545-5.775-2.136-12.432-6.572-16.527A9.344,9.344,0,0,0,548.447,286c-4.753,2.687-6.968,8.515-8.01,13.577a52.554,52.554,0,0,0-.843,11.565,103.987,103.987,0,0,0,.806,12.539c.036.255,1.213.01,1.168-.313Z" transform="translate(-539.577 -284.743)" fill="#6a79a8"/><g transform="translate(10.189 2.328)"><g transform="translate(2.278)"><path d="M591.606,295.2c3.117-.563,3.885,4.469,4,6.6.025.463,1.2.2,1.168-.313-.152-2.771-1.259-7.736-5.043-7.052-.6.108-.922.911-.127.767Z" transform="translate(-591.133 -294.368)" fill="#6a79a8"/></g><g transform="translate(2.064 1.749)"><path d="M590.276,302.093a7.119,7.119,0,0,1,1.334,5c-.037.344,1.123.118,1.156-.189a7.339,7.339,0,0,0-1.394-5.226c-.178-.245-1.3.131-1.1.415Z" transform="translate(-590.251 -301.599)" fill="#6a79a8"/></g><g transform="translate(0 3.329)"><path d="M582.15,308.613l-.432,3.377c-.078.613,1.116.471,1.186-.079q.216-1.688.432-3.376c.078-.613-1.115-.471-1.186.079Z" transform="translate(-581.714 -308.133)" fill="#6a79a8"/></g></g><path d="M604.9,444.714c.041.284-.139.433-.383.569a3.338,3.338,0,0,1-2.7.083,6.864,6.864,0,0,1-2.322-1.56,9.288,9.288,0,0,1-1.221-1.177c-.479-.649-.026-.706.473-.316.6.471,1.161,1.018,1.737,1.522a5.274,5.274,0,0,0,.934.7,4.048,4.048,0,0,0,2.812.21A1.378,1.378,0,0,1,604.9,444.714Z" transform="translate(-583.925 -404.025)" fill="#6a79a8"/></g><g transform="translate(5.891 41.325)"><g transform="translate(27.452 10.504)"><path d="M573.533,491.758c3.067,2.332,7.7,4.35,11.612,3.4.686-.166.586-.563-.106-.4-1.754.424-3.767-.172-5.417-.758a18.374,18.374,0,0,1-4.99-2.657c-.265-.2-1.293.258-1.1.407Z" transform="translate(-573.509 -491.301)" fill="#6a79a8"/></g><path d="M462.635,568.783a229.441,229.441,0,0,1,1.228-36.272,141.215,141.215,0,0,1,7.276-31.917c.58-1.741,1.427-3.45,2.08-5.172a77.364,77.364,0,0,1,4.539-10.54,9.631,9.631,0,0,1,2.48-3.249,2.19,2.19,0,0,1,1.417-.429c1.422-.04,5.306-.095,6.755-.257-.179.02-.946,9.134-.967,9.673-.431,11.244.661,20.468,2.063,31.635,1.469,11.914,2.623,23.5,3.65,35.409a64.8,64.8,0,0,1-.408,12.3,44.473,44.473,0,0,1-12.384-.078C478.886,569.645,462.582,567.455,462.635,568.783Z" transform="translate(-461.829 -472.947)" fill="#fff"/><path d="M633.307,480.171c-.441-.139-3.951-2.74-4.362-2.517-1.03.558-1.576,23.007-1.387,31.83.185,8.626-.331,17.214.315,25.847.782,10.457,1.357,20.9,2.333,31.392,3.585-.212,7.275-1.038,10.815-.857,3.772.193,7.656.748,11.4.011,3.409-.671-2.1-37.409-2.9-41.712C648.661,519.539,639.668,482.174,633.307,480.171Z" transform="translate(-587.008 -470.441)" fill="#fff"/><path d="M547.793,482.614a27.877,27.877,0,0,1-5.083,5.058c-4.49,3.8-1.881,8.674-.283,13.4a2.029,2.029,0,0,1,.135,1.32c-.192.53-.773.8-1.148,1.216a3.53,3.53,0,0,0-.65,2.218c-.364,7.146,1.087,8.868,3.241,15.563,1.417,4.4,5.682,15.764,6.529,20.313,0,0-3.061-28.515-3.788-38.046A95.941,95.941,0,0,1,547.793,482.614Z" transform="translate(-520.809 -474.211)" fill="#f9f9f9"/><path d="M530.536,457.954a8.932,8.932,0,0,1-1.593-.808,5.21,5.21,0,0,1-1.372-1.876l-2.69-4.648c-.245-.422-.483-.924-.147-1.313a2.429,2.429,0,0,1,1.915-.407c4.164.35,7.927,2.508,9.31,5.337a3.7,3.7,0,0,1,.12,3.329c-.352.723-1.561,2.353-2.476,2.3-.435-.025-.709-.456-1.016-.765a4.447,4.447,0,0,0-1.254-.794C531.081,458.187,530.81,458.072,530.536,457.954Z" transform="translate(-508.951 -448.635)" fill="#f9f9f9"/><g transform="translate(0 7.596)"><path d="M486.647,479.445c-.2.174-.214.571-.263.812-.147.721-.257,1.452-.374,2.178q-.424,2.654-.791,5.317c-.691,4.99-.338,10.217-.026,15.228.419,6.719,1.311,13.389,2.118,20.068q1.309,10.825,2.341,21.68c.379,3.939.764,7.88,1.076,11.825a66.1,66.1,0,0,1-.414,12.2l.648-.455a46.051,46.051,0,0,1-12.258-.081c-1.208-.183-2.421-.339-3.633-.491a96.571,96.571,0,0,0-11.989-1.037c-.627,0-2.8-.133-2.88.88l1.18-.1a230.754,230.754,0,0,1,1.228-36.272c1.356-11.413,3.583-23.146,8-33.808,1.172-2.828,2.224-5.7,3.393-8.532.619-1.5,1.282-2.977,2.042-4.409a11.241,11.241,0,0,1,2.729-3.833c.627-.484-.325-.83-.764-.492-1.941,1.5-3.047,4.025-4.055,6.192-1.182,2.541-2.127,5.176-3.137,7.788-1.056,2.732-2.2,5.4-3.134,8.183q-1.354,4.049-2.426,8.186a173.946,173.946,0,0,0-5.056,36.07c-.308,7.006-.278,14.022,0,21.029.023.582,1.139.4,1.18-.1-.022.273-.234.083.159.1.358.011.733-.057,1.094-.062,1-.015,2.005.047,3,.115,2.5.168,5,.437,7.486.733,1.676.2,3.353.4,5.022.655a47.666,47.666,0,0,0,12.7.1c.239-.028.617-.169.648-.455a71.986,71.986,0,0,0,.52-10.5c-.134-3.326-.531-6.654-.838-9.967q-.972-10.485-2.166-20.948c-.778-6.75-1.727-13.482-2.323-20.251-.29-3.293-.491-6.594-.563-9.9a63.336,63.336,0,0,1,.11-8.209c.184-1.676.462-3.346.716-5.012.141-.924.284-1.847.442-2.768.054-.315.106-.63.17-.943.026-.13.194-.526.052-.4.532-.472-.606-.632-.969-.311Z" transform="translate(-459.985 -479.277)" fill="#6a79a8"/></g><g transform="translate(15.049)"><path d="M531.253,457.945c-.544-.718-1.784-.857-2.584-1.112a2.432,2.432,0,0,1-1.454-.874,33.641,33.641,0,0,1-1.712-3.03l-1.484-2.626c-.152-.27-.716-.967-.626-1.275a1.2,1.2,0,0,1,1.016-.659,4.976,4.976,0,0,1,1.1.137,12.678,12.678,0,0,1,4.923,1.941c2.494,1.684,4.549,4.78,2.263,7.484-1.816,2.147-4.742,3.172-6.044,5.78-1.406,2.817-.279,6.046.712,8.8.264.733.539,1.462.788,2.2a2.366,2.366,0,0,1,.2,1.438c-.179.513-.766.772-1.1,1.16-.973,1.129-.766,3.053-.763,4.435a25.176,25.176,0,0,0,1.537,8.373c.93,2.666,1.826,5.342,2.75,8.01,1.971,5.692,4.4,11.451,5.539,17.384.044.228,1.22-.04,1.168-.313-1.1-5.71-3.41-11.26-5.314-16.735-.968-2.784-1.891-5.582-2.871-8.362a26.1,26.1,0,0,1-1.636-9.27,9.2,9.2,0,0,1,.286-2.961c.322-.869,1.379-1.2,1.587-2.095a3.94,3.94,0,0,0-.454-2.053c-.3-.846-.619-1.687-.909-2.538-1.207-3.533-1.7-7.218,1.431-9.906,1.845-1.582,4.879-3,5.285-5.674.481-3.172-3.071-5.712-5.6-6.731a10.642,10.642,0,0,0-5.342-.934,2.531,2.531,0,0,0-1.524.651c-.562.7.188,1.6.543,2.229l1.94,3.434a8.874,8.874,0,0,0,1.491,2.475c.995.813,2.895.483,3.688,1.531.207.274,1.247-.209,1.168-.313Z" transform="translate(-522.22 -447.865)" fill="#6a79a8"/></g><path d="M637.209,457.682a2.709,2.709,0,0,0,.834-.347c.817-.575,1.121-1.953,1.482-2.827l1.607-3.885a1.484,1.484,0,0,0,.1-1.313,1.369,1.369,0,0,0-1.369-.407,8.227,8.227,0,0,0-6.654,5.337,4.886,4.886,0,0,0,.14,3.855c.134.27.4.92.685,1.044.364.159.9-.308,1.156-.5a5.7,5.7,0,0,1,1.73-.875C637.02,457.735,637.115,457.709,637.209,457.682Z" transform="translate(-591.077 -448.635)" fill="#f9f9f9"/><path d="M629.143,474.3c-.341,5.6,5.269,6.173,5.622,10.958.282,3.825-2.016,7.794-2.592,11.551a1.006,1.006,0,0,0,.149.885c.211.206.545.186.834.247a1.816,1.816,0,0,1,1.288,1.4,4.053,4.053,0,0,1-.144,1.984c-1.413,5.129-3.854,9.416-4.467,14.792-.647,5.681-1.511,18.173-1.273,23.871,0,0-1.048-31.839-.665-53.5C627.94,483.967,629.143,474.3,629.143,474.3Z" transform="translate(-587.228 -467.905)" fill="#f9f9f9"/><g transform="translate(39.939 5.454)"><path d="M626.679,470.765a11.927,11.927,0,0,0-.526,3.01c-.2,1.941-.327,3.891-.437,5.839-.283,5.019-.438,10.047-.526,15.074-.092,5.281.042,10.556.013,15.836-.022,3.986-.1,7.972-.034,11.958.061,3.948.351,7.871.628,11.808.637,9.041,1.189,18.089,2.023,27.115.02.218.371.258.526.248,4.041-.267,7.96-1.047,12.027-.775,1.855.124,3.709.285,5.569.3a15.336,15.336,0,0,0,4.844-.416c1.667-.572,1.484-3.523,1.516-4.885.185-7.966-.995-16.046-2.024-23.925-.677-5.183-1.276-10.432-2.426-15.537-1.707-7.582-3.754-15.111-6.114-22.516a114.62,114.62,0,0,0-4.4-11.948c-1.07-2.4-2.29-5.33-4.4-7.018a3.573,3.573,0,0,0-1.088-.612c-.471-.159-1.373.521-.683.754,2.075.7,3.391,3.81,4.26,5.586A89.923,89.923,0,0,1,639.75,491.7c2.513,7.519,4.608,15.191,6.441,22.9,1.052,4.427,1.712,8.894,2.343,13.4,1.114,7.963,2.177,15.988,2.528,24.027a48.6,48.6,0,0,1,.018,5.047,6.266,6.266,0,0,1-.553,2.89c-.065.1-.142.179.037.055a5.317,5.317,0,0,1-1.239.195c-.6.073-1.211.116-1.819.139a64.092,64.092,0,0,1-6.716-.28c-4.168-.277-8.185.5-12.327.774l.526.248c-.732-7.919-1.248-15.855-1.792-23.789-.281-4.094-.653-8.188-.786-12.29-.129-3.985-.083-7.974-.048-11.96.094-10.5-.086-20.968.425-31.463.113-2.321.242-4.644.452-6.959a14.427,14.427,0,0,1,.55-3.757c.233-.607-.935-.566-1.11-.11Z" transform="translate(-625.145 -470.421)" fill="#6a79a8"/></g><g transform="translate(40.684 0.018)"><path d="M632.654,457.447c.236-.373,1.321-.367,1.731-.49a2.18,2.18,0,0,0,1-.524,9.835,9.835,0,0,0,1.091-2.536l1.337-3.232c.515-1.244,1.05-2.739-.855-2.727a8.514,8.514,0,0,0-3.7,1.043c-2.417,1.253-4.608,3.861-4.505,6.719.083,2.3,2.011,3.85,3.468,5.4a8.349,8.349,0,0,1,2.021,3.069,9.852,9.852,0,0,1-.25,5.4c-.512,1.952-1.267,3.833-1.761,5.791a5.475,5.475,0,0,0-.349,2.089c.173.847,1.049.547,1.623.979,1.707,1.286.106,4.508-.435,6.047-.662,1.884-1.409,3.738-2.048,5.631a40.647,40.647,0,0,0-1.8,9.526,160.677,160.677,0,0,0-.937,20.526c.007.183,1.18,0,1.168-.313a147.157,147.157,0,0,1,.615-16.59c.192-2.57.366-5.159.712-7.714.513-3.792,2.023-7.307,3.3-10.883.535-1.495,1.357-3.253,1.319-4.865a2.23,2.23,0,0,0-.793-1.757c-.613-.462-1.528-.259-1.557-1.213a9.908,9.908,0,0,1,.664-2.861c.281-.938.6-1.863.9-2.8a19.56,19.56,0,0,0,1.056-4.861c.127-2.44-.959-4.173-2.6-5.864-1.447-1.5-3.195-3.038-3.152-5.3a7.1,7.1,0,0,1,2.22-4.689,7.559,7.559,0,0,1,2.461-1.645c.669-.27,2.048-.718,2.486.013.3.505-.045,1.128-.248,1.625-.441,1.079-.892,2.155-1.337,3.232-.326.789-.729,2.655-1.519,3.014-.806.366-1.932.092-2.485.967-.071.112.969.075,1.151-.211Z" transform="translate(-628.226 -447.938)" fill="#6a79a8"/></g></g><g transform="translate(61.882 28.681)"><path d="M692.638,438.452c9.172-12.393,7.443-29.67.676-42.742-.176-.341-1.3.055-1.168.313,6.707,12.957,8.525,30.159-.58,42.463-.269.363.877.23,1.072-.033Z" transform="translate(-691.525 -395.578)" fill="#6a79a8"/></g><g transform="translate(34.632 22.648)"><g transform="translate(18.324)"><path d="M657.014,380.938a3.4,3.4,0,0,1,2.938-2.525c1.615-.37,3.233-.664,4.843-1.1a70.478,70.478,0,0,0,7.132-2.352,11.108,11.108,0,0,0-2.727,5.289,8.616,8.616,0,0,0,.759,4.75,10.463,10.463,0,0,0,2.588,3.372c-2.523-.624-5.047-1.249-7.577-1.81-1.265-.281-2.532-.546-3.8-.787a12.268,12.268,0,0,1-2.6-.644C657.194,384.539,656.6,382.821,657.014,380.938Z" transform="translate(-656.336 -373.913)" fill="#fff"/><g transform="translate(0 0.364)"><path d="M657.048,383.485q7.165,1.66,14.345,3.241c.383.084,1.377-.5.711-.649l-11.651-2.629c-.892-.2-1.825-.351-2.7-.61a2.761,2.761,0,0,1-1.892-2.365,3.972,3.972,0,0,1,.6-2.948c.611-.838,1.992-.931,2.94-1.168,2.368-.592,4.729-1.138,7.041-1.918l4.883-1.647c.678-.229.537-.84-.162-.6-3.155,1.064-6.267,2.149-9.5,2.957-2.485.621-6.132.709-6.9,3.677a4.251,4.251,0,0,0,.836,3.885c.948.984,2.678,1.058,3.94,1.343l11.854,2.675.711-.649q-7.184-1.577-14.345-3.241c-.385-.089-1.375.5-.711.649Z" transform="translate(-654.616 -372.136)" fill="#6a79a8"/></g><circle cx="7.23" cy="7.23" r="7.23" transform="translate(11.501 0.348)" fill="#bbdff5"/><path d="M724.1,393.891l-.053.042a3.346,3.346,0,0,1-2.419.676h0a3.221,3.221,0,1,1,.691-6.4,3.348,3.348,0,0,1,2.219,1.177,3.15,3.15,0,0,1-.438,4.507Z" transform="translate(-703.169 -383.942)" fill="#fff"/><path d="M727.345,398.314a1.491,1.491,0,1,1,1.7-1.315A1.523,1.523,0,0,1,727.345,398.314Z" transform="translate(-708.704 -389.367)" fill="#71777f"/><g transform="translate(10.898)"><path d="M714.095,378.276a6.68,6.68,0,0,1-6.749,6.775,6.976,6.976,0,0,1-6.5-6.9,6.663,6.663,0,0,1,6.749-6.775,6.99,6.99,0,0,1,6.5,6.9c.013.541,1.184.315,1.174-.123a7.583,7.583,0,0,0-5.171-7.133,8.16,8.16,0,0,0-8.531,2.313,7.543,7.543,0,0,0-.812,8.854,7.894,7.894,0,0,0,14.514-4.034C715.281,377.616,714.1,377.832,714.095,378.276Z" transform="translate(-699.684 -370.632)" fill="#6a79a8"/></g></g><path d="M582.8,380.938c.457-1.731,2.171-2.267,3.523-2.525,1.937-.37,3.877-.664,5.808-1.1q4.313-.976,8.551-2.352c-1.408,1.481-2.894,3.117-3.27,5.289a7.362,7.362,0,0,0,.91,4.75,10.953,10.953,0,0,0,3.1,3.372c-3.026-.624-6.051-1.249-9.086-1.81q-2.275-.421-4.557-.787a17.163,17.163,0,0,1-3.113-.644A3.28,3.28,0,0,1,582.8,380.938Z" transform="translate(-581.724 -373.913)" fill="#fff"/><circle cx="7.23" cy="7.23" r="7.23" transform="translate(14.991 0.348)" fill="#bbdff5"/><g transform="translate(0 0.378)"><path d="M581.724,383.531q8.684,1.66,17.381,3.241c.382.069,1.377-.525.711-.649l-10.605-1.975-5.664-1.055a4.7,4.7,0,0,1-2.577-.921,3.393,3.393,0,0,1-.917-2.9c.323-2.4,2.741-2.517,4.656-2.912l5.477-1.13c1.352-.279,2.677-.7,4.007-1.069l4.734-1.317c.7-.194.544-.8-.162-.6-3.368.937-6.716,1.968-10.14,2.675q-3.125.645-6.25,1.29a4,4,0,0,0-3.227,2.284,3.811,3.811,0,0,0,.859,4.271c1.262,1.123,3.5,1.113,5.079,1.407l14.019,2.61.711-.649q-8.7-1.576-17.381-3.241c-.384-.074-1.375.522-.711.649Z" transform="translate(-578.839 -372.195)" fill="#6a79a8"/></g><path d="M662.751,393.891l-.053.042a3.346,3.346,0,0,1-2.419.676h0a3.221,3.221,0,1,1,.691-6.4,3.347,3.347,0,0,1,2.219,1.177,3.15,3.15,0,0,1-.438,4.507Z" transform="translate(-638.334 -383.942)" fill="#fff"/><path d="M666,398.314A1.491,1.491,0,1,1,667.7,397,1.523,1.523,0,0,1,666,398.314Z" transform="translate(-643.869 -389.367)" fill="#71777f"/><g transform="translate(14.388)"><path d="M652.75,378.276A6.68,6.68,0,0,1,646,385.05a6.975,6.975,0,0,1-6.5-6.9,6.662,6.662,0,0,1,6.749-6.775,6.99,6.99,0,0,1,6.5,6.9c.013.541,1.184.315,1.174-.123a7.584,7.584,0,0,0-5.172-7.133,8.16,8.16,0,0,0-8.531,2.313,7.543,7.543,0,0,0-.812,8.854,7.894,7.894,0,0,0,14.514-4.034C653.936,377.616,652.76,377.832,652.75,378.276Z" transform="translate(-638.339 -370.632)" fill="#6a79a8"/></g></g><g transform="translate(15.107 29.473)"><path d="M498.735,448.935c7.8-2.208,15.437-5.731,20.987-11.8,5.073-5.548,8.823-13.293,9.358-20.807a32.919,32.919,0,0,0-.6-8.4,22.672,22.672,0,0,0-1.158-3.939c-.3-.773-1.727-3.9-.4-4.36.688-.238.513-.969-.194-.724-1.809.627-1.61,2.346-1.124,3.9.354,1.128.87,2.2,1.212,3.331a25.631,25.631,0,0,1,.805,4.111,29.724,29.724,0,0,1-2.09,15.639,35.275,35.275,0,0,1-12.558,15.943,49.366,49.366,0,0,1-14.436,6.388c-.708.2-.521.927.194.725Z" transform="translate(-498.095 -398.853)" fill="#6a79a8"/></g><g transform="translate(0 79.434)"><path d="M460.824,638.878q-2.118-4.189-4.173-8.409a20.339,20.339,0,0,1-1.338-2.935,11.186,11.186,0,1,0-3.1,1.4,13.788,13.788,0,0,1,1.053,2.091c.73,1.591,1.593,3.556,1.732,3.853.612,1.307,1.249,2.6,1.854,3.912.43.93.809,2.838,2.134,2.766a2.4,2.4,0,0,0,1.108-.37,1.563,1.563,0,0,0,.725-2.311Zm-14.114-13.5a7.626,7.626,0,1,1,9.705-4.7A7.635,7.635,0,0,1,446.71,625.377Z" transform="translate(-437.448 -606.622)" fill="#fff"/><path d="M459.583,637.562c-1.507-2.982-2.952-6-4.462-8.977-.231-.457-1.131-1.893-1-2.217a16.955,16.955,0,0,1,1.407-1.069,11.3,11.3,0,0,0,1.4-1.592,11.561,11.561,0,0,0-.947-14.687,11.958,11.958,0,0,0-14.147-2.156,11.534,11.534,0,0,0,8.653,21.277l-.635-.117a8.263,8.263,0,0,1,1.244,2.521c.41.9.813,1.81,1.217,2.715.792,1.775,1.735,3.488,2.437,5.3.459,1.186,1.069,2.393,2.537,2.2,1.575-.206,3.033-1.584,2.291-3.2-.219-.477-1.372-.132-1.168.313a1.318,1.318,0,0,1-.117,1.594,1.563,1.563,0,0,1-1.641.2,1.535,1.535,0,0,1-.222-.305,9.206,9.206,0,0,1-.732-1.693c-.623-1.5-1.41-2.94-2.081-4.422-.628-1.386-1.232-2.782-1.878-4.159-.508-1.086-.578-1.863-1.847-1.576a10.881,10.881,0,0,1-13.087-11.124,10.611,10.611,0,0,1,13.087-9.819,11.01,11.01,0,0,1,7.294,14.6,10.65,10.65,0,0,1-3.49,4.558c-.364.273-.771.4-.8.876-.021.374.375.924.533,1.251,1.618,3.36,3.3,6.693,4.981,10.021C458.652,638.344,459.8,637.991,459.583,637.562Z" transform="translate(-435.623 -605.463)" fill="#6a79a8"/><path d="M456.346,635.167a7.443,7.443,0,0,1-4.652-8.743,6.96,6.96,0,0,1,8.965-4.928,7.422,7.422,0,0,1,4.652,8.743,6.98,6.98,0,0,1-8.965,4.928c-.458-.148-1.374.516-.687.738a8.593,8.593,0,0,0,8.936-2.262,7.989,7.989,0,0,0,1.084-9.3c-3.625-6.413-13.786-4.612-15.237,2.518a8.021,8.021,0,0,0,5.217,9.048C456.113,636.074,457.026,635.42,456.346,635.167Z" transform="translate(-446.74 -616.781)" fill="#6a79a8"/><g transform="translate(1.749 1.537)" opacity="0.5"><circle cx="7.626" cy="7.626" r="7.626" transform="translate(0 14.018) rotate(-66.795)" fill="#def3f9"/></g><g transform="translate(3.55 3.528)"><path d="M465.167,630.519a6.978,6.978,0,0,1-9.126,4.263,7.4,7.4,0,0,1-4.147-9.2,6.944,6.944,0,0,1,9.352-4.1,7.439,7.439,0,0,1,3.887,9.146c-.166.513,1.025.381,1.18-.1a8,8,0,0,0-2.93-9,8.442,8.442,0,0,0-9.266-.181,7.957,7.957,0,0,0,3.317,14.711,8.467,8.467,0,0,0,8.844-5.426C466.506,630.018,465.339,630.056,465.167,630.519Z" transform="translate(-450.305 -620.052)" fill="#6a79a8"/></g></g><g transform="translate(12.855 104.373)"><path d="M503.458,709.2a27.251,27.251,0,0,1-13.891-.491c1.274,1.791,1.283,4.485,1.521,6.588a47.8,47.8,0,0,1,.2,8.413,11.24,11.24,0,0,0,5.566,1.1,6.314,6.314,0,0,0,4.811-4.334c.456-1.263.637-2.691.989-4.022C503.028,715.034,508.7,707.88,503.458,709.2Z" transform="translate(-489.376 -708.682)" fill="#f9f9f9"/><g transform="translate(0 0.184)"><path d="M488.789,709.866a46.866,46.866,0,0,1,1.319,14.4.2.2,0,0,0,.122.219c3.062,1.16,6.373,1.985,9.141-.28a7.956,7.956,0,0,0,2.528-4.087c.525-1.862.523-4.987,2.375-6.081.677-.4-.338-.6-.73-.368-2.06,1.218-2.186,4.117-2.711,6.19-.693,2.738-2.553,5.309-5.656,5.148a9.69,9.69,0,0,1-2.443-.528,3.942,3.942,0,0,1-1.159-.413c-.4-.349-.244-.881-.228-1.342q.071-2.016-.024-4.034a45.47,45.47,0,0,0-1.366-9.14c-.107-.42-1.277-.114-1.168.313Z" transform="translate(-488.781 -709.353)" fill="#6a79a8"/></g><g transform="translate(0.228 0)"><path d="M489.94,709.235a27.113,27.113,0,0,0,14.2.217c.7-.18.55-.756-.154-.576a25.414,25.414,0,0,1-13.325-.27c-.367-.106-1.368.441-.717.628Z" transform="translate(-489.725 -708.593)" fill="#6a79a8"/></g></g><g transform="translate(12.685)"><ellipse cx="25.391" cy="5.786" rx="25.391" ry="5.786" transform="translate(0 17.84) rotate(-8.453)" fill="#efefef"/><g transform="translate(0.211 12.785)"><path d="M528.775,330.3c1.436.039,12.341.258,10.218,4.051-.78,1.394-2.606,2.247-3.973,2.9a46.977,46.977,0,0,1-7.688,2.739,99.81,99.81,0,0,1-20.639,3.363,63.585,63.585,0,0,1-8.923-.017,17.934,17.934,0,0,1-5.89-1.2c-1.245-.563-2.265-1.582-1.315-2.938a8.144,8.144,0,0,1,2.921-2.215,36.408,36.408,0,0,1,5.748-2.338c.791-.262.043-.385-.4-.24-1.549.513-12.361,3.983-9.366,7.256,1.126,1.231,3.276,1.565,4.825,1.816a47.76,47.76,0,0,0,8.731.456,102.262,102.262,0,0,0,22.87-3.2,59.676,59.676,0,0,0,8.629-2.826,14.735,14.735,0,0,0,5.1-3.085c4.04-4.357-8.337-4.928-10.086-4.975-.24-.007-1.32.443-.763.458Z" transform="translate(-488.95 -329.844)" fill="#6a79a8"/></g><g transform="translate(10.754)"><ellipse cx="13.319" cy="3.035" rx="13.319" ry="3.035" transform="translate(0.141 3.916) rotate(-8.453)" fill="#efefef"/><g transform="translate(0 1.132)"><path d="M533.719,287.286c-.075-1.019,1.495-1.681,2.222-2.021a29.181,29.181,0,0,1,6.118-1.908,41.055,41.055,0,0,1,13.809-1.054c.824.109,2.57.257,2.968,1.174.387.891-.981,1.617-1.579,1.939-3.906,2.1-8.837,2.789-13.184,3.207a32.9,32.9,0,0,1-7.181.06c-.9-.113-2.916-.263-3.173-1.4-.052-.231-1.227.055-1.168.313.249,1.1,2.08,1.332,2.961,1.467a31.011,31.011,0,0,0,6.97.1c5.029-.378,10.521-1.213,15.1-3.443.778-.378,2.367-1.086,2.477-2.115.111-1.044-1.451-1.4-2.2-1.563a24.509,24.509,0,0,0-6.479-.314,55.978,55.978,0,0,0-8.9,1.18,33.844,33.844,0,0,0-7.215,2.227c-.885.412-2.814,1.225-2.723,2.464C532.565,287.789,533.741,287.589,533.719,287.286Z" transform="translate(-532.548 -281.657)" fill="#6a79a8"/></g></g><path d="M535.943,303.622c.246,1.658,6.345,2.126,13.62,1.044s12.974-3.3,12.728-4.96l-.967-10.318c.246,1.658-5.452,3.879-12.728,4.96s-13.374.614-13.62-1.044Z" transform="translate(-523.635 -286.387)" fill="#f9f9f9"/><g transform="translate(10.756 2.77)"><path d="M533.527,303.05c.186.82,1.276,1.1,1.974,1.275a19.494,19.494,0,0,0,4.825.423,53.036,53.036,0,0,0,13.306-1.837,27.437,27.437,0,0,0,4.93-1.739,5.128,5.128,0,0,0,2.328-1.71,2.114,2.114,0,0,0,.092-1.3l-.3-3.2-.605-6.456c-.018-.2-1.19.015-1.168.313.105,1.426-2.8,2.3-3.753,2.643a43.4,43.4,0,0,1-8.668,2.012,41.419,41.419,0,0,1-8.629.436c-1.014-.072-3.823-.133-4.13-1.489-.051-.227-1.193.04-1.168.313q.484,5.159.967,10.318c.018.2,1.2-.015,1.168-.313q-.483-5.159-.967-10.318l-1.168.313c.341,1.5,3.415,1.556,4.536,1.633a45.169,45.169,0,0,0,10.234-.648,41.908,41.908,0,0,0,9.237-2.409c1.015-.415,3.618-1.347,3.51-2.806l-1.168.313c.31,3.312.629,6.623.931,9.936.169,1.846-2.493,2.592-3.873,3.08a46.85,46.85,0,0,1-12.419,2.366,27.582,27.582,0,0,1-6.228-.141c-.8-.131-2.4-.333-2.625-1.319C534.643,302.505,533.469,302.792,533.527,303.05Z" transform="translate(-532.559 -288.428)" fill="#6a79a8"/></g></g></g></g></g></g></svg>